<svg xmlns="http://www.w3.org/2000/svg" xmlns:xlink="http://www.w3.org/1999/xlink" width="200" zoomAndPan="magnify" viewBox="0 0 150 67.499998" height="90" preserveAspectRatio="xMidYMid meet" version="1.0"><defs><g/><clipPath id="faa8af7912"><path d="M 0.550781 8 L 149.449219 8 L 149.449219 46.15625 L 0.550781 46.15625 Z M 0.550781 8 " clip-rule="nonzero"/></clipPath></defs><g fill="#ffffff" fill-opacity="1"><g transform="translate(38.090991, 58.54116)"><g><path d="M 6.578125 -2.3125 C 6.578125 -1.5 6.316406 -0.910156 5.796875 -0.546875 C 5.285156 -0.179688 4.550781 0 3.59375 0 L 1.03125 0 L 1.03125 -7.859375 L 3.359375 -7.859375 C 4.328125 -7.859375 5.023438 -7.722656 5.453125 -7.453125 C 5.878906 -7.179688 6.09375 -6.722656 6.09375 -6.078125 C 6.09375 -5.546875 5.972656 -5.140625 5.734375 -4.859375 C 5.503906 -4.585938 5.210938 -4.398438 4.859375 -4.296875 C 5.378906 -4.222656 5.796875 -4.03125 6.109375 -3.71875 C 6.421875 -3.40625 6.578125 -2.9375 6.578125 -2.3125 Z M 5 -5.84375 C 5 -6.25 4.875 -6.53125 4.625 -6.6875 C 4.375 -6.851562 3.929688 -6.9375 3.296875 -6.9375 L 2.09375 -6.9375 L 2.09375 -4.59375 L 3.25 -4.59375 C 3.875 -4.59375 4.320312 -4.691406 4.59375 -4.890625 C 4.863281 -5.097656 5 -5.414062 5 -5.84375 Z M 5.484375 -2.359375 C 5.484375 -2.679688 5.421875 -2.9375 5.296875 -3.125 C 5.171875 -3.3125 4.972656 -3.445312 4.703125 -3.53125 C 4.441406 -3.625 4.015625 -3.671875 3.421875 -3.671875 L 2.09375 -3.671875 L 2.09375 -0.953125 L 3.15625 -0.953125 C 3.820312 -0.953125 4.300781 -0.992188 4.59375 -1.078125 C 4.894531 -1.171875 5.117188 -1.316406 5.265625 -1.515625 C 5.410156 -1.722656 5.484375 -2.003906 5.484375 -2.359375 Z M 5.484375 -2.359375 "/></g></g></g><g fill="#ffffff" fill-opacity="1"><g transform="translate(45.670837, 58.54116)"><g><path d="M 6.953125 -3.28125 C 6.953125 -2.425781 6.851562 -1.75 6.65625 -1.25 C 6.46875 -0.75 6.164062 -0.382812 5.75 -0.15625 C 5.332031 0.0625 4.75 0.171875 4 0.171875 C 3.257812 0.171875 2.675781 0.0546875 2.25 -0.171875 C 1.820312 -0.398438 1.507812 -0.765625 1.3125 -1.265625 C 1.125 -1.765625 1.03125 -2.4375 1.03125 -3.28125 L 1.03125 -7.859375 L 2.09375 -7.859375 L 2.09375 -3.40625 C 2.09375 -2.707031 2.15625 -2.171875 2.28125 -1.796875 C 2.40625 -1.429688 2.601562 -1.164062 2.875 -1 C 3.144531 -0.832031 3.515625 -0.75 3.984375 -0.75 C 4.472656 -0.75 4.851562 -0.828125 5.125 -0.984375 C 5.394531 -1.148438 5.59375 -1.410156 5.71875 -1.765625 C 5.84375 -2.117188 5.90625 -2.65625 5.90625 -3.375 L 5.90625 -7.859375 L 6.953125 -7.859375 Z M 6.953125 -3.28125 "/></g></g></g><g fill="#ffffff" fill-opacity="1"><g transform="translate(54.006708, 58.54116)"><g><path d="M 7.0625 -1.375 C 6.8125 -0.96875 6.554688 -0.660156 6.296875 -0.453125 C 6.035156 -0.253906 5.734375 -0.101562 5.390625 0 C 5.046875 0.113281 4.640625 0.171875 4.171875 0.171875 C 2.992188 0.171875 2.125 -0.164062 1.5625 -0.84375 C 1.007812 -1.53125 0.734375 -2.5625 0.734375 -3.9375 C 0.734375 -5.300781 1.007812 -6.320312 1.5625 -7 C 2.125 -7.6875 2.976562 -8.03125 4.125 -8.03125 C 4.582031 -8.03125 4.992188 -7.972656 5.359375 -7.859375 C 5.722656 -7.742188 6.023438 -7.585938 6.265625 -7.390625 C 6.515625 -7.191406 6.742188 -6.910156 6.953125 -6.546875 L 6.09375 -5.984375 C 5.925781 -6.265625 5.753906 -6.476562 5.578125 -6.625 C 5.410156 -6.769531 5.207031 -6.882812 4.96875 -6.96875 C 4.726562 -7.050781 4.445312 -7.09375 4.125 -7.09375 C 3.34375 -7.09375 2.765625 -6.832031 2.390625 -6.3125 C 2.023438 -5.789062 1.84375 -5 1.84375 -3.9375 C 1.84375 -2.882812 2.023438 -2.09375 2.390625 -1.5625 C 2.753906 -1.03125 3.335938 -0.765625 4.140625 -0.765625 C 4.585938 -0.765625 4.972656 -0.851562 5.296875 -1.03125 C 5.628906 -1.207031 5.929688 -1.507812 6.203125 -1.9375 Z M 7.0625 -1.375 "/></g></g></g><g fill="#ffffff" fill-opacity="1"><g transform="translate(61.865089, 58.54116)"><g><path d="M 5.546875 0 L 2.828125 -3.484375 L 2.09375 -2.65625 L 2.09375 0 L 1.03125 0 L 1.03125 -7.859375 L 2.09375 -7.859375 L 2.09375 -4 L 5.40625 -7.859375 L 6.71875 -7.859375 L 3.5 -4.25 L 6.875 0 Z M 5.546875 0 "/></g></g></g><g fill="#ffffff" fill-opacity="1"><g transform="translate(69.39946, 58.54116)"><g><path d="M 1.03125 0 L 1.03125 -7.859375 L 5.84375 -7.859375 L 5.84375 -6.921875 L 2.09375 -6.921875 L 2.09375 -4.625 L 5.296875 -4.625 L 5.296875 -3.671875 L 2.09375 -3.671875 L 2.09375 -0.953125 L 5.84375 -0.953125 L 5.84375 0 Z M 1.03125 0 "/></g></g></g><g fill="#ffffff" fill-opacity="1"><g transform="translate(76.302864, 58.54116)"><g><path d="M 3.890625 -6.921875 L 3.890625 0 L 2.84375 0 L 2.84375 -6.921875 L 0.234375 -6.921875 L 0.234375 -7.859375 L 6.5 -7.859375 L 6.5 -6.921875 Z M 3.890625 -6.921875 "/></g></g></g><g fill="#ffffff" fill-opacity="1"><g transform="translate(83.382484, 58.54116)"><g/></g></g><g fill="#ffffff" fill-opacity="1"><g transform="translate(86.875253, 58.54116)"><g><path d="M 1.03125 0 L 1.03125 -7.859375 L 2.09375 -7.859375 L 2.09375 -0.953125 L 5.640625 -0.953125 L 5.640625 0 Z M 1.03125 0 "/></g></g></g><g fill="#ffffff" fill-opacity="1"><g transform="translate(93.124952, 58.54116)"><g><path d="M 3.796875 0 L 0.578125 0 L 0.578125 -0.90625 L 1.671875 -0.90625 L 1.671875 -6.96875 L 0.578125 -6.96875 L 0.578125 -7.859375 L 3.796875 -7.859375 L 3.796875 -6.96875 L 2.71875 -6.96875 L 2.71875 -0.90625 L 3.796875 -0.90625 Z M 3.796875 0 "/></g></g></g><g fill="#ffffff" fill-opacity="1"><g transform="translate(97.851235, 58.54116)"><g><path d="M 6.328125 -2.15625 C 6.328125 -1.414062 6.082031 -0.84375 5.59375 -0.4375 C 5.113281 -0.03125 4.410156 0.171875 3.484375 0.171875 C 2.773438 0.171875 2.179688 0.046875 1.703125 -0.203125 C 1.234375 -0.453125 0.847656 -0.84375 0.546875 -1.375 L 1.390625 -1.9375 C 1.835938 -1.15625 2.523438 -0.765625 3.453125 -0.765625 C 4.015625 -0.765625 4.453125 -0.878906 4.765625 -1.109375 C 5.085938 -1.347656 5.25 -1.671875 5.25 -2.078125 C 5.25 -2.304688 5.195312 -2.5 5.09375 -2.65625 C 4.988281 -2.820312 4.851562 -2.957031 4.6875 -3.0625 C 4.519531 -3.164062 4.328125 -3.25 4.109375 -3.3125 C 3.898438 -3.382812 3.675781 -3.453125 3.4375 -3.515625 C 3.050781 -3.609375 2.691406 -3.703125 2.359375 -3.796875 C 2.023438 -3.898438 1.734375 -4.03125 1.484375 -4.1875 C 1.242188 -4.351562 1.050781 -4.554688 0.90625 -4.796875 C 0.769531 -5.046875 0.703125 -5.367188 0.703125 -5.765625 C 0.703125 -6.460938 0.925781 -7.015625 1.375 -7.421875 C 1.832031 -7.828125 2.507812 -8.03125 3.40625 -8.03125 C 4.113281 -8.03125 4.675781 -7.894531 5.09375 -7.625 C 5.519531 -7.363281 5.859375 -7.03125 6.109375 -6.625 L 5.28125 -6.03125 C 5.070312 -6.375 4.820312 -6.632812 4.53125 -6.8125 C 4.238281 -7 3.863281 -7.09375 3.40625 -7.09375 C 2.882812 -7.09375 2.484375 -6.976562 2.203125 -6.75 C 1.921875 -6.53125 1.78125 -6.234375 1.78125 -5.859375 C 1.78125 -5.648438 1.820312 -5.476562 1.90625 -5.34375 C 1.988281 -5.207031 2.109375 -5.09375 2.265625 -5 C 2.429688 -4.90625 2.628906 -4.828125 2.859375 -4.765625 C 3.097656 -4.703125 3.367188 -4.628906 3.671875 -4.546875 C 4.035156 -4.453125 4.375 -4.351562 4.6875 -4.25 C 5.007812 -4.144531 5.289062 -4.007812 5.53125 -3.84375 C 5.78125 -3.675781 5.972656 -3.457031 6.109375 -3.1875 C 6.253906 -2.914062 6.328125 -2.570312 6.328125 -2.15625 Z M 6.328125 -2.15625 "/></g></g></g><g fill="#ffffff" fill-opacity="1"><g transform="translate(105.175283, 58.54116)"><g><path d="M 3.890625 -6.921875 L 3.890625 0 L 2.84375 0 L 2.84375 -6.921875 L 0.234375 -6.921875 L 0.234375 -7.859375 L 6.5 -7.859375 L 6.5 -6.921875 Z M 3.890625 -6.921875 "/></g></g></g><g clip-path="url(#faa8af7912)"><path fill="#ffffff" d="M 0.617188 46.15625 C 0.617188 46.15625 15.636719 37.171875 21.65625 33.460938 C 27.691406 29.75 28.425781 29.066406 29.164062 30.453125 C 29.902344 31.816406 30.328125 32.464844 30.328125 32.464844 C 30.328125 32.464844 41.382812 24.105469 43.984375 20.246094 C 46.570312 16.371094 48.265625 16.425781 51.164062 19.027344 C 54.082031 21.613281 60.429688 25.582031 61.535156 25.839844 C 62.644531 26.117188 77.777344 12.570312 79.308594 10.925781 C 80.839844 9.285156 82.371094 6.699219 86.175781 12.035156 C 89.996094 17.386719 104.003906 32.832031 104.003906 32.832031 C 104.003906 32.832031 109.132812 26.742188 110.128906 25.320312 C 111.144531 23.882812 111.199219 24.730469 112.511719 27.167969 C 113.839844 29.605469 118.601562 36.210938 118.601562 36.210938 C 118.601562 36.210938 128.160156 28.273438 129.433594 28.699219 C 130.707031 29.125 149.382812 44.203125 149.382812 44.203125 C 149.382812 44.203125 131.558594 32.925781 131.242188 33.570312 C 130.910156 34.199219 131.335938 38.589844 130.542969 38.648438 C 129.75 38.703125 123.988281 38.757812 123.988281 38.757812 L 123.988281 45.511719 L 116.21875 45.511719 C 116.21875 45.511719 104.796875 39.328125 98.761719 34.363281 C 92.746094 29.382812 82.6875 12.679688 82.6875 12.679688 L 83.960938 37.429688 L 69.25 28.867188 L 73.386719 40.179688 C 73.386719 40.179688 61.277344 30.914062 56.460938 27 C 51.644531 23.089844 48.15625 20.761719 47.527344 21.5 C 46.882812 22.257812 43.191406 26.429688 41.234375 27.851562 C 39.28125 29.289062 26.953125 38.648438 26.953125 38.648438 L 27.523438 32.554688 C 27.523438 32.554688 19.328125 37.925781 15.230469 39.441406 C 11.136719 40.933594 0.617188 46.15625 0.617188 46.15625 Z M 0.617188 46.15625 " fill-opacity="1" fill-rule="evenodd"/></g></svg>